<svg id="Home" xmlns="http://www.w3.org/2000/svg" viewBox="0 0 357.04 369.52"><path d="M707.34,1076.91l-58.27-48.83-93.34-78.24-21.39-17.93v4.24l2.57-3.06h-4.25l58.27,48.83,93.34,78.24,21.39,17.93v-4.24l-2.57,3.06c-2.46,2.94,1.76,7.21,4.25,4.24l2.57-3.06c1-1.16,1.32-3.13,0-4.24L651.64,1025,558.3,946.78l-21.39-17.93c-1.16-1-3.13-1.33-4.25,0l-2.57,3.06c-1,1.16-1.32,3.13,0,4.24L588.36,985l93.34,78.23,21.39,17.93C706,1083.62,710.3,1079.4,707.34,1076.91Z" transform="translate(-354.5 -927.98)"/><path d="M362.9,1076.92l-2.56-3.08v4.24l59.05-49.2,93.29-77.74,21.66-18.06H530.1l2.56,3.08v-4.24l-59,49.2-93.29,77.74-21.66,18.06c-3,2.47,1.29,6.69,4.24,4.24L422,1032l93.29-77.74,21.66-18.05c1.32-1.1,1-3.09,0-4.24l-2.56-3.08c-1.1-1.32-3.09-1-4.24,0l-59.05,49.21-93.29,77.74-21.66,18c-1.32,1.1-1,3.09,0,4.24l2.56,3.08C361.13,1084.13,365.36,1079.86,362.9,1076.92Z" transform="translate(-354.5 -927.98)"/><path d="M409.5,1291.5h-4l3,3v-217l-3,3h4l-3-3v217c0,3.86,6,3.87,6,0v-217a3,3,0,0,0-3-3h-4a3,3,0,0,0-3,3v217a3,3,0,0,0,3,3h4C413.36,1297.5,413.37,1291.5,409.5,1291.5Z" transform="translate(-354.5 -927.98)"/><path d="M659.5,1291.5h-4l3,3v-217l-3,3h4l-3-3v217c0,3.86,6,3.87,6,0v-217a3,3,0,0,0-3-3h-4a3,3,0,0,0-3,3v217a3,3,0,0,0,3,3h4C663.36,1297.5,663.37,1291.5,659.5,1291.5Z" transform="translate(-354.5 -927.98)"/><path d="M657.5,1297.5c3.86,0,3.87-6,0-6s-3.87,6,0,6Z" transform="translate(-354.5 -927.98)"/><path d="M407.5,1297.5c3.86,0,3.87-6,0-6s-3.87,6,0,6Z" transform="translate(-354.5 -927.98)"/><path d="M408,1078.5H357.5l3,3v-4l-3,3H408l-3-3v4c0,3.86,6,3.87,6,0v-4a3,3,0,0,0-3-3H357.5a3,3,0,0,0-3,3v4a3,3,0,0,0,3,3H408C411.86,1084.5,411.87,1078.5,408,1078.5Z" transform="translate(-354.5 -927.98)"/><path d="M657.5,1080.5c3.86,0,3.87-6,0-6s-3.87,6,0,6Z" transform="translate(-354.5 -927.98)"/><path d="M657.5,1227.5c3.86,0,3.87-6,0-6s-3.87,6,0,6Z" transform="translate(-354.5 -927.98)"/><path d="M407.5,1227.5c3.86,0,3.87-6,0-6s-3.87,6,0,6Z" transform="translate(-354.5 -927.98)"/><path d="M575.5,1291.5h-4l3,3v-70l-3,3h4l-3-3v70c0,3.86,6,3.87,6,0v-70a3,3,0,0,0-3-3h-4a3,3,0,0,0-3,3v70a3,3,0,0,0,3,3h4C579.36,1297.5,579.37,1291.5,575.5,1291.5Z" transform="translate(-354.5 -927.98)"/><path d="M492,1262.5c3.86,0,3.87-6,0-6s-3.87,6,0,6Z" transform="translate(-354.5 -927.98)"/><path d="M494.5,1291.5h-4l3,3V1225l-3,3h4l-3-3v69.5c0,3.86,6,3.87,6,0V1225a3,3,0,0,0-3-3h-4a3,3,0,0,0-3,3v69.5a3,3,0,0,0,3,3h4C498.36,1297.5,498.37,1291.5,494.5,1291.5Z" transform="translate(-354.5 -927.98)"/><path d="M575,1229.5c3.86,0,3.87-6,0-6s-3.87,6,0,6Z" transform="translate(-354.5 -927.98)"/><path d="M491.5,1229.5c3.86,0,3.87-6,0-6s-3.87,6,0,6Z" transform="translate(-354.5 -927.98)"/><path d="M575.5,1249.5h-4l3,3v-70l-3,3h4l-3-3v70c0,3.86,6,3.87,6,0v-70a3,3,0,0,0-3-3h-4a3,3,0,0,0-3,3v70a3,3,0,0,0,3,3h4C579.36,1255.5,579.37,1249.5,575.5,1249.5Z" transform="translate(-354.5 -927.98)"/><path d="M492,1220.5c3.86,0,3.87-6,0-6s-3.87,6,0,6Z" transform="translate(-354.5 -927.98)"/><path d="M494.5,1249.5h-4l3,3V1183l-3,3h4l-3-3v69.5c0,3.86,6,3.87,6,0V1183a3,3,0,0,0-3-3h-4a3,3,0,0,0-3,3v69.5a3,3,0,0,0,3,3h4C498.36,1255.5,498.37,1249.5,494.5,1249.5Z" transform="translate(-354.5 -927.98)"/><path d="M575,1183.5H491.5l3,3v-4l-3,3H575l-3-3v4c0,3.86,6,3.87,6,0v-4a3,3,0,0,0-3-3H491.5a3,3,0,0,0-3,3v4a3,3,0,0,0,3,3H575C578.86,1189.5,578.87,1183.5,575,1183.5Z" transform="translate(-354.5 -927.98)"/><path d="M493,1291.5H408l3,3v-4l-3,3h85l-3-3v4c0,3.86,6,3.87,6,0v-4a3,3,0,0,0-3-3H408a3,3,0,0,0-3,3v4a3,3,0,0,0,3,3h85C496.86,1297.5,496.87,1291.5,493,1291.5Z" transform="translate(-354.5 -927.98)"/><path d="M656,1291.5H572l3,3v-4l-3,3h84l-3-3v4c0,3.86,6,3.87,6,0v-4a3,3,0,0,0-3-3H572a3,3,0,0,0-3,3v4a3,3,0,0,0,3,3h84C659.86,1297.5,659.87,1291.5,656,1291.5Z" transform="translate(-354.5 -927.98)"/><path d="M660.54,1081.5l-.08-4-3,3,51-1-3-3,.08,4,3-3-51,1c-3.86.08-3.87,6.08,0,6l51-1a3,3,0,0,0,3-3l-.08-4a3,3,0,0,0-3-3l-51,1a3,3,0,0,0-3,3l.08,4C654.61,1085.36,660.61,1085.37,660.54,1081.5Z" transform="translate(-354.5 -927.98)"/></svg>