<svg id="Layer_1" data-name="Layer 1" xmlns="http://www.w3.org/2000/svg" viewBox="0 0 319 223"><defs><style>.cls-1{fill:none;}.cls-1,.cls-2{stroke:#000;stroke-miterlimit:10;}</style></defs><path class="cls-1" d="M489.5,736.05V724.5a10,10,0,0,1,10-10h280a10,10,0,0,1,10,10v180c0,5.5-4,10-8.78,10h-8.79" transform="translate(-471 -714)"/><path class="cls-1" d="M488.5,737.05" transform="translate(-471 -714)"/><path class="cls-1" d="M488.5,915.5" transform="translate(-471 -714)"/><path class="cls-1" d="M770.93,915.5" transform="translate(-471 -714)"/><path d="M761.5,937h-280A10.51,10.51,0,0,1,471,926.5v-180A10.51,10.51,0,0,1,481.5,736h280A10.51,10.51,0,0,1,772,746.5v180A10.51,10.51,0,0,1,761.5,937Zm-280-200a9.51,9.51,0,0,0-9.5,9.5v180a9.51,9.51,0,0,0,9.5,9.5h280a9.51,9.51,0,0,0,9.5-9.5v-180a9.51,9.51,0,0,0-9.5-9.5Z" transform="translate(-471 -714)"/><circle class="cls-2" cx="73" cy="79" r="22.5"/><path class="cls-1" d="M719.5,891.5" transform="translate(-471 -714)"/><path class="cls-1" d="M631.5,803.5" transform="translate(-471 -714)"/><path class="cls-2" d="M537.9,865.1l-33.4,33.4h231l-.5-.5-94.5-94.5-.5-.5-55.5,55.5-20-20Z" transform="translate(-471 -714)"/></svg>