<svg id="Layer_1" data-name="Layer 1" xmlns="http://www.w3.org/2000/svg" viewBox="0 0 451.84 452"><defs><style>.cls-1,.cls-2{fill:none;}.cls-2{stroke:#000;stroke-miterlimit:10;stroke-width:2px;}</style></defs><path class="cls-1" d="M568.12,1348.77a148.92,148.92,0,0,1-51.72,18.11h2.1l-5.13,40.5H473.63l-5.13-40.5h2.1a149.09,149.09,0,0,1-65.77-27.27l1.52,1.52-32.27,25L346,1338l25-32.26,1.52,1.52a149.29,149.29,0,0,1-27.26-65.71v2l-40.5-5.13v-39.73l40.5-5.14v2a149,149,0,0,1,18.28-52l1.84,1.85,30.4,30.47,1.88,1.88,1.93,1.94,132.5,132.81,1.93,1.94,1.88,1.87,30.4,30.47Z" transform="translate(-267.81 -992)"/><path class="cls-1" d="M682.25,1198.76v39.73l-40.5,5.14v-2a149,149,0,0,1-17.47,50.52l-1.84-1.84-30.6-30.45-1.9-1.89L588,1256,455.68,1124.31l-1.95-1.94-1.9-1.89L421.24,1090l-1.85-1.83a148.71,148.71,0,0,1,51.14-17.82h-2l5.13-40.49h39.74l5.13,40.49h-2a149.21,149.21,0,0,1,65.67,27.23l-1.49-1.48,32.27-25,28.09,28.1-25,32.26-1.52-1.52a149.2,149.2,0,0,1,27.26,65.7v-2Z" transform="translate(-267.81 -992)"/><path d="M643.56,1191.34a152.57,152.57,0,0,0-24.66-59.52L644.33,1099l-31.2-31.22-32.82,25.44a152.67,152.67,0,0,0-59.52-24.66l-5.22-41.18H471.43l-5.22,41.18a152.73,152.73,0,0,0-48.66,17.8l1.84,1.83,1.85,1.83a147.06,147.06,0,0,1,49.67-17.18l-.17-2.19.24,0,4.85-38.3h35.34l4.85,38.3.24,0-.17,2.19a147.33,147.33,0,0,1,64.57,26.78l1.42-1.66.1.14,30.53-23.66,25,25L614,1129.94l.1.07-1.65,1.42a147.59,147.59,0,0,1,26.8,64.6l2.19-.17,0,.25,38.31,4.85v35.33l-38.31,4.86,0,.23-2.18-.17a147.41,147.41,0,0,1-16.84,49.06l1.84,1.84,1.83,1.83a152.48,152.48,0,0,0,17.45-48l41.19-5.23v-44.13Zm-77.27,155.58A147.3,147.3,0,0,1,516,1364.41l.17,2.18-.17,0-4.85,38.31H475.83L471,1366.57l-.17,0,.17-2.18a147.42,147.42,0,0,1-64.67-26.81l-1.42,1.65-.07-.1-30.53,23.66-25-25L373,1307.31l-.1-.07,1.65-1.42a147.72,147.72,0,0,1-26.8-64.61l-2.19.17,0-.24-38.31-4.85V1201l38.31-4.86,0-.24,2.19.17a147.45,147.45,0,0,1,17.65-50.49l-1.84-1.85-1.82-1.83a152.59,152.59,0,0,0-18.27,49.47l-41.19,5.23v44.13l41.19,5.22a152.79,152.79,0,0,0,24.66,59.52l-25.43,32.82,31.2,31.22L406.7,1344a152.62,152.62,0,0,0,59.51,24.66l5.22,41.2h44.14l5.22-41.2A152.66,152.66,0,0,0,570,1350.59l-1.83-1.82Z" transform="translate(-267.81 -992)"/><path class="cls-1" d="M532.08,1312.64l1.93,1.94a104.18,104.18,0,0,1-136.36-136.69l1.93,1.94Z" transform="translate(-267.81 -992)"/><path class="cls-1" d="M597.62,1218.62a103.8,103.8,0,0,1-7.68,39.31L588,1256,455.68,1124.31l-1.95-1.94a104.17,104.17,0,0,1,143.89,96.25Z" transform="translate(-267.81 -992)"/><path d="M493.5,1112a106,106,0,0,0-41.67,8.48l1.9,1.89,1.95,1.94A101.62,101.62,0,0,1,588,1256l1.94,1.93,1.9,1.89A106.62,106.62,0,0,0,493.5,1112Zm38.58,200.64a101.62,101.62,0,0,1-132.5-132.81l-1.93-1.94-1.88-1.88a106.6,106.6,0,0,0,140.12,140.44l-1.88-1.87Z" transform="translate(-267.81 -992)"/><path class="cls-2" d="M716.71,1399.49l-21-19.83-32,9.56L656,1421.71l20.19,19.07a58.48,58.48,0,0,1-74-63.54l-39.45-39.55-1.65-1.64-1.65-1.66L532.08,1307l-1.69-1.68-1.74-1.75L409.46,1184.09l-1.73-1.75-1.69-1.69-27.35-27.41-1.66-1.66-1.63-1.65L335,1109.43a58.49,58.49,0,0,1-64.19-73.08l20.8,19.63,32-9.57,7.71-32.5-19.85-18.73A58.48,58.48,0,0,1,385.26,1059l-.09.73L425.63,1100l1.65,1.64,1.67,1.65,27.51,27.4,1.71,1.7,1.76,1.75,119,118.46,1.75,1.73,1.71,1.7,27.52,27.39,1.66,1.66,1.64,1.64,40,39.77a58.46,58.46,0,0,1,63.51,73Z" transform="translate(-267.81 -992)"/><path class="cls-2" d="M384,1060.69" transform="translate(-267.81 -992)"/><path class="cls-2" d="M333.34,1111.79" transform="translate(-267.81 -992)"/></svg>