<svg id="Layer_1" data-name="Layer 1" xmlns="http://www.w3.org/2000/svg" viewBox="0 0 374.78 380.51"><defs><style>.cls-1{fill:#fff;}.cls-1,.cls-2{stroke:#000;stroke-miterlimit:10;}.cls-2{fill:none;}.cls-3{font-size:159px;font-family:Calibri;}</style></defs><line class="cls-1" x1="142" y1="379.93" x2="0.58" y2="238.51"/><path class="cls-2" d="M562.5,1218.5" transform="translate(-385.15 -1015.35)"/><path class="cls-2" d="M562.5,1218.5" transform="translate(-385.15 -1015.35)"/><path class="cls-2" d="M668.5,1112.5" transform="translate(-385.15 -1015.35)"/><path class="cls-2" d="M562.5,1218.5" transform="translate(-385.15 -1015.35)"/><line class="cls-2" x1="283.35" y1="97.15" x2="141.35" y2="98.15"/><line class="cls-2" x1="283.35" y1="97.15" x2="283.35" y2="239.15"/><line class="cls-2" x1="141.35" y1="98.15" x2="0.35" y2="238.15"/><path class="cls-2" d="M385.5,1253.5" transform="translate(-385.15 -1015.35)"/><path class="cls-2" d="M527.5,1395.5" transform="translate(-385.15 -1015.35)"/><line class="cls-2" x1="283.35" y1="239.15" x2="142.35" y2="380.15"/><circle class="cls-2" cx="252.35" cy="127.15" r="10"/><text class="cls-3" transform="matrix(0.67, 0.68, -0.71, 0.7, 94.47, 225.98)">$</text><path class="cls-2" d="M668.5,1141.87C695,1133,719,1118,741,1099c8-8,16-17,18-29,2-16-3-32-16-43-12-10-29-14-44-9-11,4-19,11-26,20a30.39,30.39,0,0,1-5,7c-12,20-23,39-31,61-4,13-9,37,9.89,39.94" transform="translate(-385.15 -1015.35)"/></svg>