<?xml version="1.0" encoding="utf-8"?>
<!-- Generator: Adobe Illustrator 25.2.3, SVG Export Plug-In . SVG Version: 6.00 Build 0)  -->
<svg version="1.1" id="Layer_1" xmlns="http://www.w3.org/2000/svg" xmlns:xlink="http://www.w3.org/1999/xlink" x="0px" y="0px"
	 viewBox="0 0 1125 2436" style="enable-background:new 0 0 1125 2436;" xml:space="preserve">
<style type="text/css">
	.st0{fill:#FFFFFF;}
</style>
<g>
	<g>
		<g>
			<path class="st0" d="M682.25,1198.76v39.73l-40.5,5.14v-2.04c-3.74,24.32-13.32,46.72-27.26,65.71l1.52-1.52l25,32.26
				l-28.09,28.1l-32.27-25.01l1.52-1.52c-19,13.96-41.42,23.54-65.77,27.27h2.1l-5.13,40.5h-39.74l-5.13-40.5h2.1
				c-24.35-3.73-46.77-13.31-65.77-27.27l1.52,1.52l-32.27,25.01l-28.09-28.1l25-32.26l1.52,1.52
				c-13.94-18.99-23.52-41.39-27.26-65.71v2.03l-40.5-5.13v-39.73l40.5-5.14v2.03c3.74-24.32,13.32-46.72,27.26-65.7l-1.52,1.52
				l-25-32.26l28.09-28.1l32.27,25.01l-1.49,1.48c18.98-13.92,41.36-23.5,65.67-27.23h-2.03l5.13-40.49h39.74l5.13,40.49h-2.03
				c24.31,3.73,46.69,13.31,65.67,27.23l-1.49-1.48l32.27-25.01l28.09,28.1l-25,32.26l-1.52-1.52
				c13.94,18.98,23.52,41.38,27.26,65.7v-2.02L682.25,1198.76z"/>
			<path d="M515.57,1409.88h-44.15l-5.22-41.2c-21.28-3.86-41.7-12.32-59.5-24.66l-32.83,25.45l-31.2-31.22l25.44-32.82
				c-12.34-17.82-20.81-38.24-24.66-59.51l-41.19-5.22v-44.14l41.19-5.23c3.86-21.28,12.32-41.7,24.66-59.51L342.67,1099l31.2-31.22
				l32.82,25.44c17.83-12.35,38.26-20.82,59.52-24.67l5.22-41.18h44.15l5.22,41.18c21.26,3.85,41.69,12.31,59.52,24.67l32.82-25.44
				l31.21,31.22l-25.44,32.82c12.34,17.81,20.81,38.23,24.66,59.52l41.19,5.22v44.14l-41.19,5.23
				c-3.86,21.27-12.32,41.69-24.66,59.51l25.44,32.82l-31.21,31.22l-32.83-25.45c-17.8,12.34-38.22,20.81-59.5,24.66L515.57,1409.88
				z M475.83,1404.88h35.33l4.85-38.31l0.17,0.02l-0.17-2.18c23.29-3.57,45.65-12.84,64.67-26.81l1.42,1.65l0.07-0.09l30.53,23.66
				l24.97-24.98l-23.65-30.52l0.09-0.07l-1.65-1.42c13.96-19.02,23.23-41.36,26.8-64.61l2.18,0.17l-0.03-0.23l38.31-4.86v-35.32
				l-38.31-4.85l0.03-0.25l-2.19,0.17c-3.58-23.26-12.85-45.59-26.8-64.6l1.65-1.42l-0.09-0.07l23.65-30.52l-24.97-24.98
				l-30.53,23.66l-0.1-0.14l-1.42,1.66c-19.03-13.95-41.35-23.21-64.57-26.77l0.17-2.19l-0.24,0.03l-4.85-38.3h-35.33l-4.85,38.3
				l-0.24-0.03l0.17,2.19c-23.22,3.56-45.54,12.82-64.57,26.77l-1.42-1.66l-0.1,0.14l-30.53-23.66l-24.98,24.98l23.65,30.52
				l-0.09,0.07l1.65,1.42c-13.96,19-23.23,41.34-26.8,64.6l-2.19-0.17l0.03,0.24l-38.31,4.86v35.32l38.31,4.85l-0.03,0.24l2.19-0.17
				c3.58,23.25,12.84,45.59,26.8,64.61l-1.65,1.42l0.09,0.07l-23.65,30.52l24.98,24.98l30.53-23.66l0.07,0.09l1.42-1.65
				c19.02,13.97,41.38,23.25,64.67,26.81l-0.17,2.18l0.17-0.02L475.83,1404.88z"/>
		</g>
	</g>
	<g>
		<circle class="st0" cx="493.5" cy="1218.62" r="104.12"/>
		<path d="M493.5,1325.25c-58.79,0-106.62-47.83-106.62-106.62c0-58.79,47.83-106.62,106.62-106.62s106.62,47.83,106.62,106.62
			C600.12,1277.42,552.29,1325.25,493.5,1325.25z M493.5,1117c-56.04,0-101.62,45.59-101.62,101.62s45.59,101.62,101.62,101.62
			s101.62-45.59,101.62-101.62S549.54,1117,493.5,1117z"/>
	</g>
</g>
</svg>
